<svg fill="none" height="24" viewBox="0 0 24 24" width="24" xmlns="http://www.w3.org/2000/svg"><g fill="#292d32"><path d="m22 4.84969v11.89001c0 .97-.79 1.86-1.76 1.98l-.31.04c-1.64.22-3.95.9-5.81 1.68-.65.27-1.37-.22-1.37-.93v-13.91001c0-.37.21-.71.54-.89 1.83-.99 4.6-1.87 6.48-2.03h.06c1.2 0 2.17.97 2.17 2.17z"/><path d="m10.7083 4.70969c-1.83002-.99-4.60002-1.87-6.48002-2.03h-.07c-1.2 0-2.17.97-2.17 2.17v11.89001c0 .97.79 1.86 1.76 1.98l.31.04c1.64.22 3.95.9 5.81 1.68.65002.27 1.37002-.22 1.37002-.93v-13.91001c0-.38-.2-.71-.53-.89zm-5.71002 3.03h2.25c.41 0 .75.34.75.75 0 .42-.34.75-.75.75h-2.25c-.41 0-.75-.33-.75-.75 0-.41.34-.75.75-.75zm3 4.50001h-3c-.41 0-.75-.33-.75-.75 0-.41.34-.75.75-.75h3c.41 0 .75.34.75.75 0 .42-.34.75-.75.75z"/></g></svg>