<!DOCTYPE svg PUBLIC "-//W3C//DTD SVG 1.1//EN" "http://www.w3.org/Graphics/SVG/1.1/DTD/svg11.dtd">
<!-- Uploaded to: SVG Repo, www.svgrepo.com, Transformed by: SVG Repo Mixer Tools -->
<svg width="800px" height="800px" viewBox="0 0 24 24" fill="none" xmlns="http://www.w3.org/2000/svg">
<g id="SVGRepo_bgCarrier" stroke-width="0"/>
<g id="SVGRepo_tracerCarrier" stroke-linecap="round" stroke-linejoin="round"/>
<g id="SVGRepo_iconCarrier"> <path fill-rule="evenodd" clip-rule="evenodd" d="M4.875 12V15C4.875 17.7614 7.05761 20 9.75 20H13.65C14.9429 20 16.1829 19.4732 17.0971 18.5355C18.0114 17.5979 18.525 16.3261 18.525 15V12C18.5263 10.6735 18.0131 9.40097 17.0986 8.463C16.1841 7.52503 14.9433 6.99867 13.65 7H9.75C8.45668 6.99867 7.21595 7.52503 6.30143 8.463C5.38691 9.40097 4.87371 10.6735 4.875 12V12Z" stroke="#a2a2a2" stroke-width="1.5" stroke-linecap="round" stroke-linejoin="round"/> <path d="M8.02502 9C8.02502 9.41421 8.36081 9.75 8.77502 9.75C9.18924 9.75 9.52502 9.41421 9.52502 9H8.02502ZM9.52502 5C9.52502 4.58579 9.18924 4.25 8.77502 4.25C8.36081 4.25 8.02502 4.58579 8.02502 5H9.52502ZM13.875 9C13.875 9.41421 14.2108 9.75 14.625 9.75C15.0392 9.75 15.375 9.41421 15.375 9H13.875ZM15.375 5C15.375 4.58579 15.0392 4.25 14.625 4.25C14.2108 4.25 13.875 4.58579 13.875 5H15.375ZM9.31202 13.4764C9.02286 13.1798 8.54803 13.1738 8.25145 13.463C7.95487 13.7522 7.94886 14.227 8.23802 14.5236L9.31202 13.4764ZM10.725 16L10.188 16.5236C10.3292 16.6684 10.5228 16.75 10.725 16.75C10.9272 16.75 11.1209 16.6684 11.262 16.5236L10.725 16ZM15.162 12.5236C15.4512 12.227 15.4452 11.7522 15.1486 11.463C14.852 11.1738 14.3772 11.1798 14.088 11.4764L15.162 12.5236ZM9.52502 9V5H8.02502V9H9.52502ZM15.375 9V5H13.875V9H15.375ZM8.23802 14.5236L10.188 16.5236L11.262 15.4764L9.31202 13.4764L8.23802 14.5236ZM11.262 16.5236L15.162 12.5236L14.088 11.4764L10.188 15.4764L11.262 16.5236Z" fill="#a2a2a2"/> </g>
</svg>