<svg viewBox="0 0 400 300" xmlns="http://www.w3.org/2000/svg"><path d="m338.07 112.47a113 113 0 0 1 -5.81 27.31c-4.95 14.1-13.06 26.24-22.9 37.33q-4.68 5.26-9.66 10.22c-7.33 7.33-15.06 14.24-22.85 21.09l-3.86 3.4q-9.93 8.76-19.88 17.5-2.66 2.34-5.32 4.67-10.84 9.56-21.67 19.11c-1.15 1-2.29 2-3.43 3l-4.69 4.21q-2.37 2.12-4.7 4.27c-4.11 3.77-8.15 7.65-12.24 11.45-.3.29-.62.57-1 1-1.41-1.33-2.8-2.62-4.17-3.92q-11.46-10.83-23.22-21.32-3.37-3-6.77-6.05c-2.87-2.54-5.75-5.09-8.64-7.61q-3.74-3.3-7.49-6.56-6.18-5.4-12.41-10.77c-8.76-7.59-17.55-15.14-26.08-23-4-3.71-8-7.52-11.89-11.41a190.68 190.68 0 0 1 -13.26-14.62 123.86 123.86 0 0 1 -10-14.3 102.25 102.25 0 0 1 -13.09-36.89 149 149 0 0 1 -1.74-29.22c1.27-29.81 19.64-54.92 47-63.94 29.52-9.74 55.51-2.91 77.8 18.53a85.84 85.84 0 0 1 13.24 16.75l.66 1.1c1.39-2.08 2.63-4.06 4-5.94 9-12.67 20.29-22.61 34.65-28.83a71 71 0 0 1 34.57-5.63c17.78 1.46 33.21 8.3 45.78 21.15a69.22 69.22 0 0 1 19.1 39.19c1.38 9.57.83 19.16-.03 28.73z" fill="#fff"/><path d="m225.69 79.84s-6.55 43.32-11.28 53l17.74 3 1.53-3.59 2 4.71 18.23 2.69-5.45-66.87z" fill="#fff"/><path d="m253.88 140.19h-.08l-18.23-2.69a.5.5 0 0 1 -.39-.3l-1.51-3.61-1.06 2.49a.49.49 0 0 1 -.55.3l-17.73-3a.49.49 0 0 1 -.36-.26.51.51 0 0 1 0-.45c4.65-9.5 11.17-52.42 11.23-52.86a.51.51 0 0 1 .35-.4l22.75-7a.48.48 0 0 1 .42.06.49.49 0 0 1 .22.38l5.44 66.87a.46.46 0 0 1 -.15.4.51.51 0 0 1 -.35.07zm-17.88-3.64 17.33 2.55-5.33-65.62-21.86 6.74c-.63 4.14-6.47 42-11 52.24l16.7 2.86 1.37-3.22a.6.6 0 0 1 .47-.31.5.5 0 0 1 .46.31z" fill="#231f20"/><path d="m133.44 68.69a27.24 27.24 0 0 1 3.25-6.55 23.3 23.3 0 0 1 7.44-5.93c8.12-4 20.87-6.51 29.47-2.63 5.4 2.42 10.29 6.95 11.4 12.79a24.69 24.69 0 0 1 .07 6.87c-1.34 14.29-11.79 17.59-22.52 24.44-7.3 4.66-17.48 9.09-26.33 5.83-6.76-2.5-9.9-10.45-10.66-17.08-.47-4.05-.77-11.77 2.82-14.62a6.22 6.22 0 0 1 5.38-1.12c-.59-.16-.6-.96-.32-2z" fill="#fff"/><path d="m142.79 105.13a19.34 19.34 0 0 1 -6.73-1.16c-6.91-2.54-10.21-10.7-11-17.48-.5-4.34-.78-12.07 3-15.07a6.76 6.76 0 0 1 4.71-1.42 4.48 4.48 0 0 1 .19-1.46 27.27 27.27 0 0 1 3.35-6.74 23.89 23.89 0 0 1 7.59-6.05c8.22-4.06 21.08-6.62 29.9-2.64 6.29 2.85 10.67 7.76 11.7 13.15a24.69 24.69 0 0 1 .08 7c-1.13 12.08-8.62 16.46-17.29 21.52-1.78 1-3.62 2.12-5.47 3.29-5.43 3.5-12.77 7.06-20.03 7.06zm-10.56-34.13a5.7 5.7 0 0 0 -3.53 1.21c-3.53 2.81-3 10.85-2.64 14.18.75 6.48 3.86 14.26 10.35 16.66 8.82 3.25 18.94-1.35 25.88-5.78 1.85-1.19 3.7-2.27 5.49-3.31 8.43-4.93 15.72-9.18 16.8-20.76a23.73 23.73 0 0 0 -.06-6.73c-1-5.07-5.13-9.72-11.13-12.42-8.52-3.85-21-1.34-29 2.62a23 23 0 0 0 -7.28 5.8 27 27 0 0 0 -3.15 6.36c-.25 1-.14 1.26-.1 1.33h.08a.5.5 0 1 1 -.26 1 5.62 5.62 0 0 0 -1.45-.16z" fill="#231f20"/><path d="m234.14 142.76-11.09-1.17 11.09 1.17-12.48 15.6-2.95 35.64s.14 2.58.42 7.25c.21 3.7.52 8.72.9 14.82.66 10.53 1.55 24.29 2.66 40.1l-4.69 4.14q-2.37 2.12-4.7 4.27c-4.11 3.77-8.15 7.65-12.24 11.45-.3.29-.62.57-1 1-1.41-1.33-2.8-2.62-4.17-3.92q-11.46-10.83-23.22-21.32-3.37-3-6.77-6.05c-2.87-2.54-5.75-5.09-8.64-7.61q-3.74-3.3-7.49-6.56-6.18-5.4-12.41-10.77c-8.76-7.59-17.55-15.14-26.08-23-4-3.71-8-7.52-11.89-11.41a190.68 190.68 0 0 1 -13.26-14.62c6.39-12.5 16.76-30.83 25.41-36.33 6.87-5.72 17.95-8.32 31.35-9.69 6.05-.63 12.56-1 19.37-1.31l9.24-.37s1.43.11 4.49.38 7.57.72 13.89 1.38c13.85 1.43 44.26 16.93 44.26 16.93z" fill="#68e1fd"/><path d="m299.9 166.54c-.07 1.28-.12 2.82-.15 4.61-.11 4.23-.12 9.8-.05 16.17-7.33 7.33-15.06 14.24-22.85 21.09l-3.86 3.4q-9.93 8.76-19.88 17.5-2.66 2.34-5.32 4.67-10.84 9.56-21.67 19.11c-1.15 1-2.29 2-3.43 3l-4.69 4.22q-2.37 2.12-4.7 4.27l-2.05.08s-2.08-20.86-2.58-42.84c-.07-3-.11-6-.11-8.95l-5.56 6.68-.35.43-3.65 4.37-14.4 17.41-10.54-5.57-9.61-5.09c-1.39-.72-2.48-1.3-3.08-1.62l-.5-.27a51.19 51.19 0 0 1 2.56-4.89l1.71-3.09c.81-1.46 1.72-3.07 2.68-4.8 1.47-2.62 3.1-5.48 4.8-8.49l7-12.36a0 0 0 0 0 0 0c3.12-5.46 6.17-10.76 8.74-15.23 2.79-4.85 5-8.7 6.15-10.6.27-.47.48-.82.62-1.05.67-1.08 1.35-2.2 2-3.32a65 65 0 0 1 8-11.2c.22-.24.46-.48.69-.71a49.33 49.33 0 0 1 17.18-10.9 77 77 0 0 1 9.09-2.94h.13c2.34-.6 4.69-1.12 7-1.53l1.68-.3c.34-.07.68-.12 1-.18 2.25-.4 4.51-.76 6.77-1 1.64-.21 3.29-.38 4.92-.49a53.49 53.49 0 0 1 7.38 0 36.81 36.81 0 0 1 8.11 1.38 31.28 31.28 0 0 1 8.92 4.11c.75.5 1.53 1 2.36 1.53 2.21 1.39 4.63 2.88 7 4.49a50.05 50.05 0 0 1 5.64 4.36 25.4 25.4 0 0 1 4.08 4.7 16.4 16.4 0 0 1 2.48 5.72 14.88 14.88 0 0 1 .34 4.12z" fill="#68e1fd"/><path d="m188.52 171.28a.47.47 0 0 1 -.25-.07.5.5 0 0 1 -.18-.68c.45-.78 11-19.11 17.21-23.32s26-8 26.79-8.11a.5.5 0 1 1 .19 1c-.2 0-20.42 3.87-26.42 7.95s-16.79 22.8-16.9 23a.51.51 0 0 1 -.44.23z" fill="#231f20"/><path d="m175.52 119.39 1.71 20.85s-1.89 11.63-14.85 9.74-17.38-15.79-17.38-15.79l-4.29-32.59s8.94-5.88 4.28-26a63.14 63.14 0 0 0 33.36 1.52s7.81 21.6 7.19 31.56-10.02 10.71-10.02 10.71z" fill="#fff"/><path d="m165.11 150.69a20 20 0 0 1 -2.8-.21c-13.12-1.91-17.76-16-17.8-16.14l-4.32-32.67a.52.52 0 0 1 .22-.48 12.09 12.09 0 0 0 3.74-5.32c1.45-3.57 2.69-10 .33-20.19a.5.5 0 0 1 .16-.49.5.5 0 0 1 .51-.09 63.23 63.23 0 0 0 33.07 1.5.51.51 0 0 1 .58.32c.32.88 7.83 21.81 7.22 31.76a11.59 11.59 0 0 1 -10 11.14l1.67 20.38a.48.48 0 0 1 0 .12c.02.11-1.78 10.37-12.58 10.37zm-23.89-48.86 4.26 32.3c0 .05 4.48 13.54 17 15.36 12 1.74 14.11-8.32 14.28-9.27l-1.76-20.79a.49.49 0 0 1 .45-.53 10.57 10.57 0 0 0 9.55-10.28c.56-9-6-27.91-7-30.95a65.17 65.17 0 0 1 -32.36-1.34c3.88 17.89-2.94 24.35-4.42 25.5z" fill="#231f20"/><path d="m176.58 132.27a36.91 36.91 0 0 1 -12.78-6.51c-6.09-4.86-5.89-8-5.89-8s9.46 4.1 17.61 1.66z" fill="#231f20"/><path d="m176.58 132.77h-.12a37.08 37.08 0 0 1 -13-6.6c-6.22-5-6.09-8.31-6.08-8.45a.49.49 0 0 1 .24-.39.48.48 0 0 1 .45 0c.1 0 9.4 4 17.28 1.65a.48.48 0 0 1 .42.06.49.49 0 0 1 .22.37l1.06 12.88a.51.51 0 0 1 -.5.54zm-18-14.25c.34 1.17 1.52 3.62 5.57 6.86a37 37 0 0 0 11.85 6.21l-.92-11.59c-6.76 1.8-14.08-.56-16.54-1.48z" fill="#231f20"/><ellipse cx="157.91" cy="90.93" fill="#231f20" rx="1.65" ry="2.32" transform="matrix(.99907843 -.04292191 .04292191 .99907843 -3.76 6.86)"/><ellipse cx="174.92" cy="90.49" fill="#231f20" rx="2.32" ry="1.65" transform="matrix(.10504918 -.99446703 .99446703 .10504918 66.55 254.94)"/><path d="m167.2 91.82s4.7 8 3.35 9.87-5.9 1.35-5.9 1.35" fill="#fff"/><path d="m166.12 103.62a12.19 12.19 0 0 1 -1.53-.09.5.5 0 0 1 -.44-.55.52.52 0 0 1 .56-.44c1.18.15 4.46.23 5.43-1.14.8-1.14-1.49-6.14-3.37-9.32a.51.51 0 0 1 .18-.69.5.5 0 0 1 .68.18c.81 1.37 4.79 8.33 3.33 10.41-.96 1.38-3.29 1.64-4.84 1.64z" fill="#231f20"/><path d="m146.22 97.71a8.27 8.27 0 0 0 -3.22-4.17 10.57 10.57 0 0 0 -7.6-1.93c-2.58.5-4.1 3.29-4.31 5.75a9.62 9.62 0 0 0 1.93 6.4c3.13 4.3 8.56 6.15 13.4 3.44" fill="#fff"/><path d="m141.66 109a11.25 11.25 0 0 1 -9-4.9 10 10 0 0 1 -2-6.75c.23-2.66 1.92-5.64 4.71-6.19a11 11 0 0 1 8 2 8.91 8.91 0 0 1 3.42 4.42.5.5 0 1 1 -.95.33 7.76 7.76 0 0 0 -3-3.91 10.1 10.1 0 0 0 -7.24-1.86c-2.3.45-3.7 3-3.9 5.3a9.07 9.07 0 0 0 1.83 6.07c3.18 4.36 8.43 5.72 12.76 3.29a.51.51 0 0 1 .68.2.5.5 0 0 1 -.19.68 10.26 10.26 0 0 1 -5.12 1.32z" fill="#231f20"/><path d="m275.11 158a6.77 6.77 0 0 0 -2.14 2.68 2.44 2.44 0 0 0 1 3c1.07.49 2.29-.16 3.29-.8l10.54-6.74-7.15 5.74c-1.24 1-2.59 2.69-1.64 4 .8 1.05 2.43.7 3.64.19a41.62 41.62 0 0 0 11.2-7l-8.77 7.69c-1.19 1-2.46 2.76-1.48 4a2.7 2.7 0 0 0 2 .8 9.06 9.06 0 0 0 7.4-3.32l-3.27 3.38c-.64.67-1.3 1.77-.64 2.42a1.72 1.72 0 0 0 1.44.28 22.61 22.61 0 0 0 15-8.26 15.56 15.56 0 0 0 3.36-7c1.29-7.77-6.14-15.2-13.92-14.57-7.1.51-14.92 9.15-19.86 13.51z" fill="#fff"/><path d="m290.07 174.82a1.75 1.75 0 0 1 -1.28-.44c-.84-.83-.27-2.07.52-2.94a9.41 9.41 0 0 1 -3.71.59 3.08 3.08 0 0 1 -2.37-1c-1.13-1.43 0-3.33 1.54-4.63l2.34-2.06a40.44 40.44 0 0 1 -4.29 2.09c-1.92.81-3.41.69-4.18-.34-1.12-1.47.15-3.34 1.71-4.59l.53-.42-3.39 2.17c-1.14.73-2.48 1.4-3.72.82a2.89 2.89 0 0 1 -1.23-3.57 7.37 7.37 0 0 1 2.27-2.88c.85-.75 1.79-1.63 2.79-2.57 4.77-4.47 11.3-10.59 17.33-11.07a13.66 13.66 0 0 1 11 4.56 12.57 12.57 0 0 1 3.41 10.54 16 16 0 0 1 -3.45 7.24 23 23 0 0 1 -15.28 8.44 4.89 4.89 0 0 1 -.54.06zm2.2-5.13-2.19 2.31c-.48.5-1.05 1.38-.65 1.78a1.43 1.43 0 0 0 1.07.15 22 22 0 0 0 14.67-8.1 14.9 14.9 0 0 0 3.27-6.82 11.69 11.69 0 0 0 -3.18-9.77 12.77 12.77 0 0 0 -10.26-4.32c-5.71.46-12.1 6.45-16.77 10.83-1 .95-2 1.83-2.81 2.59a6.46 6.46 0 0 0 -2 2.49 2 2 0 0 0 .75 2.44c.84.39 1.92-.17 2.85-.76l10.55-6.74a.46.46 0 0 1 .62.12.45.45 0 0 1 -.09.62l-7.15 5.74c-.26.2-2.51 2.07-1.56 3.32.7.93 2.4.34 3.1.05a40.86 40.86 0 0 0 11.07-6.89.46.46 0 0 1 .64.05.45.45 0 0 1 0 .64l-8.77 7.69c-1.12 1-2.16 2.45-1.42 3.38a2.19 2.19 0 0 0 1.7.62 8.64 8.64 0 0 0 6-2.08l1.05-1.09a.46.46 0 0 1 .69.6 9.29 9.29 0 0 1 -1.18 1.15z" fill="#231f20"/><path d="m290.13 171.54a.52.52 0 0 1 -.37-.16.51.51 0 0 1 0-.71c.07-.06 6.87-6.29 11.86-10.73a.5.5 0 0 1 .7 0 .51.51 0 0 1 0 .71c-5 4.43-11.78 10.65-11.85 10.72a.51.51 0 0 1 -.34.17z" fill="#231f20"/><path d="m247.79 234q-10.84 9.56-21.67 19.11c-1.15 1-2.29 2-3.43 3l-4.69 4.2q-2.37 2.12-4.7 4.27c-4.11 3.77-8.15 7.65-12.24 11.45-.3.29-.62.57-1 1-1.41-1.33-2.8-2.62-4.17-3.92q-11.46-10.83-23.22-21.32-3.37-3-6.77-6.05c-2.87-2.54-5.75-5.09-8.64-7.61.76-2.56 1.61-5.06 2.52-7.43a65.48 65.48 0 0 1 2.84-6.36 40.21 40.21 0 0 1 2.91-4.89 28 28 0 0 1 2.38-3q1.49-1.6 3.08-3a46.82 46.82 0 0 1 11.18-7.45 56.5 56.5 0 0 1 12.34-4.13c1.14-.24 2.28-.45 3.43-.64 1.18-.19 2.34-.34 3.5-.45a67.44 67.44 0 0 1 7.57-.38c1.86 0 3.68.1 5.43.24s3.17.33 4.68.56a46.37 46.37 0 0 1 11.24 3.1 17.12 17.12 0 0 1 4.55 2.73 20.48 20.48 0 0 1 3.73 5.13c.66 1.16 1.32 2.45 2 3.86q.53 1.09 1.05 2.28c.9 2 1.8 4.18 2.7 6.49 1.14 2.9 2.28 6 3.4 9.21z" fill="#fff"/><path d="m200 277.43a.47.47 0 0 1 -.31-.12l-1.76-1.65-2.42-2.26c-7.15-6.77-14.74-13.74-23.2-21.32q-3.37-3-6.78-6.05c-2.87-2.54-5.74-5.09-8.63-7.61a.46.46 0 0 1 -.14-.47c.76-2.55 1.61-5.06 2.54-7.47a63.58 63.58 0 0 1 2.85-6.4 42.68 42.68 0 0 1 2.94-4.94 25.84 25.84 0 0 1 2.4-3 42.87 42.87 0 0 1 3.11-3 47.39 47.39 0 0 1 11.4-7.56 57.54 57.54 0 0 1 12.44-4.16c1.15-.24 2.31-.46 3.46-.64s2.37-.34 3.54-.45a69.44 69.44 0 0 1 7.61-.39c1.83 0 3.68.1 5.47.25 1.61.14 3.19.33 4.71.56a46.19 46.19 0 0 1 11.35 3.13 17.5 17.5 0 0 1 4.67 2.81 20.66 20.66 0 0 1 3.82 5.25c.63 1.1 1.29 2.37 2 3.88.35.74.71 1.5 1.06 2.3.87 2 1.78 4.15 2.71 6.5 1 2.62 2.14 5.63 3.4 9.22a.43.43 0 0 1 -.13.49q-10.84 9.55-21.67 19.11l-8.17 7.21c-1.63 1.46-3.21 2.89-4.69 4.26-2.37 2.18-4.71 4.39-7.06 6.59q-2.58 2.44-5.17 4.86l-1 .95a.45.45 0 0 1 -.35.12zm-42.28-39.5q4.23 3.69 8.42 7.42 3.41 3 6.78 6.05c8.46 7.6 16.08 14.6 23.21 21.33l2.41 2.26 1.45 1.36.71-.65c1.74-1.62 3.46-3.24 5.18-4.86 2.34-2.21 4.69-4.42 7.06-6.6 1.48-1.38 3.06-2.81 4.7-4.27l8.18-7.21q10.71-9.48 21.44-18.91c-1.26-3.45-2.26-6.36-3.26-8.85-.92-2.35-1.83-4.52-2.69-6.47-.35-.79-.71-1.55-1.06-2.28-.71-1.49-1.35-2.74-2-3.83a20.5 20.5 0 0 0 -3.63-5 16.88 16.88 0 0 0 -4.44-2.65 45.32 45.32 0 0 0 -11.12-3.07c-1.5-.23-3.06-.41-4.64-.55-1.78-.15-3.59-.23-5.41-.24a67.65 67.65 0 0 0 -7.51.38c-1.15.11-2.29.25-3.48.44s-2.28.4-3.42.64a56.6 56.6 0 0 0 -12.24 4.09 46.8 46.8 0 0 0 -11.14 7.32c-1.09 1-2.11 2-3 3a26.59 26.59 0 0 0 -2.34 2.93 42.72 42.72 0 0 0 -2.88 4.79 64.08 64.08 0 0 0 -2.81 6.31c-.93 2.29-1.75 4.69-2.48 7.12z" fill="#231f20"/><path d="m232.7 201.69a4.87 4.87 0 0 0 -1.9 1.92 55 55 0 0 0 -6.74 14.29c-.35 1.14-.38 2.81.79 3.06.86.19 1.57-.63 2.06-1.35l4.28-6.29a25 25 0 0 0 -4.13 8.5 2.4 2.4 0 0 0 0 1.69 1.67 1.67 0 0 0 2 .65 4.58 4.58 0 0 0 1.8-1.29 36.52 36.52 0 0 0 5.14-6.87l-4.27 8.84c-.36.75-.69 1.75-.09 2.32a1.68 1.68 0 0 0 1.11.38c1.8.06 2.49-.85 3.72-2.16s3.08-3 3.9-4.59l-3.4 6.37a5.79 5.79 0 0 0 -.87 2.57 1.94 1.94 0 0 0 1.51 2 2.66 2.66 0 0 0 1.9-.84c3.48-3 4.43-5.61 6.84-9.65a24.5 24.5 0 0 0 2.43 4.5 17.6 17.6 0 0 0 1.42-13.32 15.64 15.64 0 0 0 -6.93-8.72c-2.44-1.32-7.93-3.18-10.57-2.01z" fill="#fff"/><path d="m237.81 232.22h-.2a2.38 2.38 0 0 1 -1.92-2.45 6.07 6.07 0 0 1 .92-2.78l1.19-2.24-.13.14-.82.84-.28.3c-1.07 1.16-1.95 2.08-3.79 2a2 2 0 0 1 -1.42-.5c-.62-.6-.62-1.56 0-2.85l1.81-3.75c-.64.78-1.32 1.54-2 2.27a4.81 4.81 0 0 1 -2 1.4 2.12 2.12 0 0 1 -2.5-.87 2.79 2.79 0 0 1 0-2c.14-.53.3-1.05.47-1.56a2.5 2.5 0 0 1 -2.34 1.26 1.6 1.6 0 0 1 -1-.76 3.94 3.94 0 0 1 -.09-2.89 55.59 55.59 0 0 1 6.8-14.41 5.14 5.14 0 0 1 2.09-2.07c3-1.32 8.81.85 11 2a16 16 0 0 1 7.16 9 18.18 18.18 0 0 1 -1.54 13.7.47.47 0 0 1 -.37.22.45.45 0 0 1 -.39-.17 21.45 21.45 0 0 1 -2.13-3.78c-.36.62-.68 1.2-1 1.76a22.91 22.91 0 0 1 -5.49 7.24 3.26 3.26 0 0 1 -2.03.95zm2.9-11-3.29 6.19a5.3 5.3 0 0 0 -.82 2.35 1.5 1.5 0 0 0 1.1 1.54 2.31 2.31 0 0 0 1.55-.74 22.23 22.23 0 0 0 5.29-7c.44-.8.91-1.64 1.46-2.56a.46.46 0 0 1 .82.06 26.36 26.36 0 0 0 2 3.82 17.38 17.38 0 0 0 1-12.32 15.28 15.28 0 0 0 -6.72-8.45c-2.71-1.47-7.91-3-10.21-2a4.55 4.55 0 0 0 -1.7 1.75 54.38 54.38 0 0 0 -6.69 14.14 3.08 3.08 0 0 0 0 2.16.69.69 0 0 0 .45.33c.45.1 1-.28 1.58-1.17l3-4.4a22.9 22.9 0 0 1 1.3-1.91.46.46 0 0 1 .74.53l-1.28 1.88a24.87 24.87 0 0 0 -2.79 6.49 2.06 2.06 0 0 0 0 1.36 1.25 1.25 0 0 0 1.42.42 4.12 4.12 0 0 0 1.61-1.17 36.36 36.36 0 0 0 5.16-6.75.46.46 0 0 1 .61-.18.47.47 0 0 1 .19.61l-4.27 8.84c-.3.61-.57 1.42-.18 1.8a1.3 1.3 0 0 0 .81.24c1.46 0 2-.58 3.1-1.72l.27-.29.83-.86a18.45 18.45 0 0 0 2.89-3.45l.1-.19a.47.47 0 0 1 .62-.19.45.45 0 0 1 .19.61z" fill="#231f20"/><path d="m228 219.46a.43.43 0 0 1 -.19 0 .5.5 0 0 1 -.27-.64c.12-.29 4.91-8.85 7.25-11.17a.49.49 0 0 1 .7 0 .48.48 0 0 1 0 .7c-2.21 2.19-6.87 10.51-7 10.85a.52.52 0 0 1 -.49.26z" fill="#231f20"/><path d="m232.19 223a.48.48 0 0 1 -.19 0 .5.5 0 0 1 -.22-.67c1.66-3.31 7.38-11.75 7.62-12.11a.5.5 0 0 1 .83.56c-.06.09-5.93 8.75-7.56 12a.49.49 0 0 1 -.48.22z" fill="#231f20"/><path d="m237 227.69h-.13a.49.49 0 0 1 -.34-.62 30.21 30.21 0 0 1 6.27-10.88.49.49 0 0 1 .7 0 .5.5 0 0 1 0 .7 29.75 29.75 0 0 0 -6 10.48.49.49 0 0 1 -.5.32z" fill="#231f20"/><path d="m280.64 162.39a.5.5 0 0 1 -.33-.88c.08-.06 7.34-6.35 13.72-10.81a.5.5 0 1 1 .57.81c-6.33 4.49-13.6 10.69-13.6 10.76a.52.52 0 0 1 -.36.12z" fill="#231f20"/><path d="m285.34 166.19a.51.51 0 0 1 -.34-.19.5.5 0 0 1 .07-.7 177.91 177.91 0 0 1 14.68-10.87.5.5 0 0 1 .52.85c-5.48 3.35-14.47 10.71-14.57 10.79a.51.51 0 0 1 -.36.12z" fill="#231f20"/><path d="m111.21 198.25a.49.49 0 0 1 -.49-.48c-.21-8.3-.07-16.12 0-21.82a82.29 82.29 0 0 0 0-8.6.5.5 0 0 1 .38-.59.49.49 0 0 1 .59.39 76.85 76.85 0 0 1 0 8.82c-.1 5.69-.25 13.5 0 21.77a.49.49 0 0 1 -.48.51z" fill="#231f20"/><path d="m141.16 200.13a.43.43 0 0 1 -.19 0l-11.49-4.85a.5.5 0 0 1 -.31-.46v-23.1a.5.5 0 0 1 .5-.5h23a.5.5 0 0 1 .5.5v23.06a.5.5 0 0 1 -.31.46l-11.48 4.85a.48.48 0 0 1 -.22.04zm-11-5.68 11 4.64 11-4.64v-22.23h-22z" fill="#231f20"/><path d="m242.26 128.25-.75 18.94s0 11.79 11.88 8.46a24.66 24.66 0 0 0 15.84-14.06l-1.35-33.93c-.06-1.43-.65-15.45-.42-27.9-14.46-.23-27.46-1.45-27.46-1.45 1.41 1.41-3.75 1.63-3.73 1.63a21.28 21.28 0 0 0 -6.86 1c-.84 8.34-3.05 17.43-2.87 25.72a81.26 81.26 0 0 0 1.48 14.76c1.98 9.29 14.24 6.83 14.24 6.83z" fill="#fff"/><path d="m249.48 156.7a7.84 7.84 0 0 1 -4.91-1.53c-3.49-2.65-3.51-7.77-3.51-8l.72-18.4c-2.49.34-12.44 1.17-14.18-7.23a81.51 81.51 0 0 1 -1.48-14.84c-.12-5.37.76-11.12 1.62-16.67.47-3 .95-6.15 1.25-9.11a.46.46 0 0 1 .3-.39 22 22 0 0 1 7-1.06c1.67-.08 3.31-.43 3.53-.74 0 0 0 0-.11-.12a.46.46 0 0 1 -.09-.52.45.45 0 0 1 .46-.26c.12 0 13.09 1.23 27.39 1.45a.52.52 0 0 1 .32.14.51.51 0 0 1 .13.33c-.21 10.86.22 23 .41 27.7v.18c0 .17 1.36 33.93 1.36 33.93a.47.47 0 0 1 0 .17 25.36 25.36 0 0 1 -16.14 14.34 15.43 15.43 0 0 1 -4.07.63zm-7.22-28.91a.44.44 0 0 1 .29.11.45.45 0 0 1 .16.37l-.71 18.94s0 4.86 3.15 7.24c1.94 1.47 4.68 1.73 8.15.76a24.42 24.42 0 0 0 15.5-13.69c-1.35-33.84-1.35-33.84-1.35-33.86v-.16c-.19-4.65-.6-16.52-.41-27.29-12.21-.21-23.35-1.13-26.27-1.38a1.44 1.44 0 0 1 0 .24c-.39 1-2.9 1.26-4.36 1.33a21.87 21.87 0 0 0 -6.45.92c-.3 2.9-.77 5.93-1.23 8.87-.85 5.51-1.73 11.22-1.61 16.51a79.59 79.59 0 0 0 1.47 14.67c.75 3.62 3.25 5.81 7.42 6.5a19.51 19.51 0 0 0 6.25-.07z" fill="#231f20"/><path d="m244.64 99.41s-6.3 9.42-4.8 11.06 5.69.55 5.69.55" fill="#fff"/><path d="m242.74 111.88a4.4 4.4 0 0 1 -3.27-1.08c-1.64-1.78 3.23-9.38 4.76-11.66a.49.49 0 0 1 .69-.14.5.5 0 0 1 .14.69c-2.94 4.39-5.59 9.63-4.85 10.44 1.06 1.16 4.11.68 5.2.4a.51.51 0 0 1 .61.36.51.51 0 0 1 -.36.61 12.89 12.89 0 0 1 -2.92.38z" fill="#231f20"/><ellipse cx="237.61" cy="98.61" fill="#231f20" rx="2.03" ry="1.08" transform="matrix(.03925982 -.99922904 .99922904 .03925982 129.74 332.16)"/><ellipse cx="252.79" cy="99.41" fill="#231f20" rx="2.03" ry="1.08" transform="matrix(.03925982 -.99922904 .99922904 .03925982 143.52 348.1)"/><path d="m238.83 91.42 1.25-4.15 2.24 4.2 12.36 1.26 2.32-5.46.9 6.63 6.28-.54s-6.14 31.12-2.3 49l26.06.94v-4.7l3.14 4.71s7.41 2.08 15.26-5.83c0 0-16.62-33.72-18.86-48.06s-5.37-26.27-23.48-29.63-30 1-37.4 10.42-5 20.53-5 20.53 13.64 1.01 17.23.68z" fill="#fff"/><path d="m293.48 144.07a10 10 0 0 1 -2.54-.28.51.51 0 0 1 -.28-.2l-2.22-3.34v3.06a.48.48 0 0 1 -.16.36.45.45 0 0 1 -.36.14l-26.06-.94a.51.51 0 0 1 -.47-.4c-3.51-16.35 1.32-44 2.17-48.55l-5.62.48a.53.53 0 0 1 -.54-.44l-.65-4.82-1.61 3.79a.53.53 0 0 1 -.52.3l-12.35-1.23a.53.53 0 0 1 -.39-.26l-1.67-3.14-.9 3a.51.51 0 0 1 -.43.35c-3.59.34-16.78-.63-17.34-.67a.51.51 0 0 1 -.45-.39c0-.12-2.39-11.46 5.08-20.95 8-10.2 20.77-13.77 37.88-10.61 18.31 3.4 21.67 15.62 23.92 30.05 2.21 14.1 18.65 47.58 18.81 47.92a.49.49 0 0 1 -.09.57c-5.25 5.26-10.29 6.2-13.21 6.2zm-2.1-1.2c1.12.23 7.56 1.17 14.35-5.49-1.73-3.5-16.63-34.38-18.73-47.89-2.27-14.55-5.42-25.93-23.11-29.21-17-3.14-29 .21-36.91 10.24-6.43 8.17-5.28 17.78-5 19.75 2.18.16 12.88.9 16.46.67l1.14-3.82a.51.51 0 0 1 .43-.35.5.5 0 0 1 .49.26l2.12 4 11.72 1.2 2.18-5.13a.52.52 0 0 1 .53-.3.51.51 0 0 1 .43.43l.83 6.16 5.8-.5a.52.52 0 0 1 .42.17.52.52 0 0 1 .12.43c-.06.31-6 30.78-2.38 48.42l25.15.91v-4.22a.5.5 0 0 1 .91-.28z" fill="#231f20"/><path d="m236.32 117.27s10.91 9 17.56-3.84" fill="#fff"/><path d="m244.43 120.83a14.79 14.79 0 0 1 -8.43-3.17.5.5 0 1 1 .64-.77s4.66 3.77 9.52 2.77c2.91-.6 5.36-2.77 7.27-6.46a.5.5 0 0 1 .89.46c-2.06 4-4.74 6.32-8 7a9.76 9.76 0 0 1 -1.89.17z" fill="#231f20"/><path d="m158.73 108.47s8.17 10.1 17-1.5z" fill="#fff"/><path d="m166.7 113c-4.85 0-8.21-4.08-8.35-4.26a.5.5 0 0 1 -.08-.51.53.53 0 0 1 .42-.3l17-1.5a.53.53 0 0 1 .48.26.5.5 0 0 1 0 .54c-2.89 3.79-6 5.73-9.33 5.77zm-6.89-4.16c1.17 1.13 3.81 3.19 7 3.16 2.72 0 5.34-1.54 7.82-4.47z" fill="#231f20"/><path d="m242.26 128.25s9.67-2.08 13.34-5.4c0 0-3.57 13.83-13.91 19.91z" fill="#231f20"/><path d="m241.69 143.26a.48.48 0 0 1 -.26-.07.5.5 0 0 1 -.24-.45l.57-14.51a.5.5 0 0 1 .39-.47c.1 0 9.59-2.09 13.11-5.28a.5.5 0 0 1 .6 0 .51.51 0 0 1 .22.55c-.15.57-3.74 14.09-14.14 20.21a.47.47 0 0 1 -.25.02zm1.05-14.61-.52 13.2c7.55-4.9 11.25-14.1 12.45-17.66-3.78 2.48-10.28 4.08-11.93 4.46z" fill="#231f20"/><path d="m179.77 170.69s-5.39 35.72-9.29 43.7l32-1.16-3.93-48.33z" fill="#fff"/><path d="m170.48 214.9a.5.5 0 0 1 -.42-.23.48.48 0 0 1 0-.49c3.82-7.83 9.2-43.21 9.25-43.56a.48.48 0 0 1 .35-.4l18.75-5.79a.5.5 0 0 1 .65.43l3.94 48.33a.53.53 0 0 1 -.12.38.48.48 0 0 1 -.36.16l-32 1.16zm9.74-43.82c-.55 3.64-5.26 34-8.95 42.79l30.65-1.12-3.84-47.19z" fill="#231f20"/><path d="m193.44 210.61-.47 12s1.64 3.51 11.47.76 9.77-7.33 9.77-7.33.35-22.36.35-22.37c0-1.19-.53-12.74-.34-23-11.94-.19-22.62-1.2-22.62-1.2 1.16 1.16-3.09 1.35-3.08 1.35a17.5 17.5 0 0 0 -5.65.86c-.69 6.88-4.16 25.93-3.34 29.92 1.58 7.58 13.91 9.01 13.91 9.01z" fill="#fff"/><path d="m198 224.84c-4.37 0-5.35-2-5.41-2.07a.49.49 0 0 1 0-.21l.41-11.56c-2.25-.33-12.41-2.23-13.88-9.36-.58-2.78.81-12.22 2-20.55.55-3.76 1.08-7.3 1.3-9.51a.46.46 0 0 1 .3-.38 18.41 18.41 0 0 1 5.79-.89 7.38 7.38 0 0 0 2.8-.53.44.44 0 0 1 -.09-.51.44.44 0 0 1 .46-.26c.1 0 10.79 1 22.58 1.19a.55.55 0 0 1 .32.14.51.51 0 0 1 .13.33c-.17 8.89.18 18.9.33 22.79v.19l-.35 22.4c0 .19 0 4.94-10.11 7.76a24.77 24.77 0 0 1 -6.58 1.03zm-4.53-2.38c.33.45 2.49 2.79 10.89.44 9.3-2.6 9.43-6.84 9.43-6.89s.35-22.18.36-22.38v-.16c-.15-3.83-.49-13.59-.35-22.39-9.92-.18-19-.91-21.5-1.13a1 1 0 0 1 0 .13c-.31.82-2.16 1.08-3.66 1.16a17.71 17.71 0 0 0 -5.25.74c-.24 2.24-.74 5.65-1.27 9.25-1.16 7.85-2.59 17.61-2.05 20.24 1.49 7.2 13.39 8.68 13.51 8.69a.45.45 0 0 1 .4.47z" fill="#231f20"/><path d="m194.23 190c-1.28 2.27-2.56 5-1.88 5.71 1.24 1.35 4.7.46 4.7.46" fill="#fff"/><path d="m194.75 196.93a3.75 3.75 0 0 1 -2.75-.93c-.5-.55-.75-1.76 1.81-6.29a.49.49 0 0 1 .68-.19.49.49 0 0 1 .19.68c-2.5 4.43-1.95 5.12-1.94 5.13.84.91 3.38.51 4.2.3a.51.51 0 0 1 .61.36.5.5 0 0 1 -.36.61 10.14 10.14 0 0 1 -2.44.33z" fill="#231f20"/><path d="m208.84 216.87v-.87h36.37c-3.26-6.8-13-27.61-14.48-37.42-1.85-11.82-4.43-21.66-19.4-24.43s-24.72.83-30.83 8.59a22 22 0 0 0 -4.11 16.93s11.26.84 14.23.56l1-3.42 1.84 3.46 10.19 1.05 1.92-4.51.74 5.47 5.17-.44s-3.94 20.16-2.64 35.03z" fill="#fff"/><g fill="#231f20"><path d="m208.84 217.37a.5.5 0 0 1 -.49-.46c-1.17-13.25 1.89-30.92 2.55-34.51l-4.52.38a.5.5 0 0 1 -.54-.43l-.49-3.66-1.21 2.83a.51.51 0 0 1 -.51.3l-10.19-1a.47.47 0 0 1 -.39-.26l-1.28-2.39-.68 2.25a.48.48 0 0 1 -.43.36c-3 .28-13.85-.52-14.31-.56a.49.49 0 0 1 -.45-.39 22.28 22.28 0 0 1 4.2-17.34c6.65-8.45 17.18-11.4 31.32-8.78 15.16 2.8 17.93 12.91 19.8 24.84 1.53 9.82 11.44 31 14.44 37.29a.51.51 0 0 1 0 .48.5.5 0 0 1 -.42.23h-35.9v.36a.5.5 0 0 1 -.47.5zm.4-1.86h35.17c-3.36-7.06-12.68-27.24-14.18-36.84-1.87-12-4.45-21.33-19-24-13.94-2.58-23.86.17-30.35 8.41-5.21 6.62-4.35 14.4-4.08 16.15 1.93.14 10.48.73 13.43.56l.93-3.09a.49.49 0 0 1 .43-.36.52.52 0 0 1 .49.27l1.72 3.22 9.55 1 1.78-4.17a.52.52 0 0 1 .53-.3.5.5 0 0 1 .42.43l.68 5 4.7-.4a.46.46 0 0 1 .41.16.49.49 0 0 1 .12.43c.01.16-3.7 19.02-2.75 33.53z"/><path d="m194.93 202.38h-.47c-4.52-.29-7.54-4.46-7.66-4.64a.51.51 0 0 1 .11-.7.5.5 0 0 1 .7.12s2.88 4 6.92 4.22c2.41.15 4.81-1.05 7.1-3.55a.51.51 0 0 1 .71 0 .5.5 0 0 1 0 .71c-2.34 2.54-4.84 3.84-7.41 3.84z"/><path d="m193.44 210.61s8 .09 11-2.64c0 0-2.95 3.88-11.47 8.9z"/><path d="m193 217.37a.5.5 0 0 1 -.26-.08.5.5 0 0 1 -.24-.46l.47-6.25a.45.45 0 0 1 .5-.46c.07 0 7.82 0 10.66-2.52a.5.5 0 0 1 .67 0 .49.49 0 0 1 .06.67c-.12.16-3.1 4-11.61 9a.55.55 0 0 1 -.25.1zm.93-6.26-.36 4.84a53.32 53.32 0 0 0 8.28-6 28.47 28.47 0 0 1 -7.95 1.16z"/><path d="m191.25 187.34a.52.52 0 0 1 -.44-.27c-.49-.91-1.27-2-2.24-2-1.15-.09-2.07 1.29-2.08 1.31a.49.49 0 0 1 -.69.13.5.5 0 0 1 -.14-.69c.05-.08 1.28-1.84 3-1.75 1.15.06 2.19.92 3.09 2.58a.5.5 0 0 1 -.21.68.48.48 0 0 1 -.29.01z"/><path d="m203.88 187.34a.5.5 0 0 1 -.44-.27c-.49-.91-1.28-2-2.25-2h-.06c-1.1 0-2 1.29-2 1.31a.5.5 0 0 1 -.83-.56c.05-.07 1.26-1.83 3-1.75 1.15.06 2.19.92 3.08 2.58a.51.51 0 0 1 -.2.68.53.53 0 0 1 -.3.01z"/><path d="m226.12 253.6a.51.51 0 0 1 -.5-.45l-2.27-21.34a.5.5 0 0 1 1-.1l2.27 21.34a.51.51 0 0 1 -.45.55z"/><path d="m172.6 252.24h-.09a.5.5 0 0 1 -.4-.58l4.48-23a.49.49 0 0 1 .59-.39.48.48 0 0 1 .39.58l-4.48 23a.49.49 0 0 1 -.49.39z"/><path d="m273 212.32h-.13l-29.69-8.11a.5.5 0 0 1 .26-1l29.69 8.1a.51.51 0 0 1 .35.62.49.49 0 0 1 -.48.39z"/><path d="m253.11 229.82a.49.49 0 0 1 -.32-.12l-4.29-3.56a.5.5 0 0 1 .64-.77l4.29 3.56a.51.51 0 0 1 .06.71.53.53 0 0 1 -.38.18z"/><path d="m272.81 210.62h-.1a.49.49 0 0 1 -.39-.59l7.83-35.75a.5.5 0 0 1 .6-.38.49.49 0 0 1 .38.59l-7.83 35.75a.5.5 0 0 1 -.49.38z"/><path d="m143.49 160.78a2.17 2.17 0 0 1 -1.56-.93c-2.88-3.3-8.29-20.19-7.19-24.07s5.5-6.6 5.69-6.72a.49.49 0 0 1 .68.16.48.48 0 0 1 -.16.68s-4.27 2.7-5.25 6.15c-.85 3 3.76 19.45 7 23.14.51.59.78.61.85.6 2.49-.35 14.26-7.5 18.59-10.23a.48.48 0 0 1 .68.16.49.49 0 0 1 -.15.68c-.65.41-15.77 9.92-19 10.37z"/><path d="m178.2 157.3c-3.78 0-10.42-5.14-11.26-5.81a.5.5 0 0 1 -.09-.7.5.5 0 0 1 .7-.08c3.47 2.73 9.67 6.61 11.59 5.37 2.26-1.47 8.7-13.42 9.46-19.28.19-1.53-.06-2.17-.3-2.44-2.66-2.92-6.65-6.4-6.69-6.43a.5.5 0 0 1 .65-.75 91.63 91.63 0 0 1 6.77 6.51c.58.63.76 1.69.55 3.24-.75 5.8-7.22 18.24-9.9 20a2.64 2.64 0 0 1 -1.48.37z"/></g><path d="m157.19 238.08q-3.74-3.3-7.49-6.56l.44-5.44.18-2.13 12.23.35h.89.39l.1 1.12 4.07 19.38" fill="#fff"/><path d="m168 245.25a.46.46 0 0 1 -.45-.36l-4.08-19.35-.07-.77-12.67-.36-.56 6.92 1.41 1.23c2 1.72 3.94 3.44 5.91 5.18a.46.46 0 0 1 0 .64.45.45 0 0 1 -.64 0q-2.94-2.59-5.9-5.17l-1.59-1.39a.44.44 0 0 1 -.15-.38l.61-7.57a.45.45 0 0 1 .47-.42l13.51.38a.45.45 0 0 1 .44.41l.11 1.13 4.07 19.29a.46.46 0 0 1 -.35.54z" fill="#231f20"/><path d="m165.45 210.87a4.33 4.33 0 0 0 -1.31-2.41 1 1 0 0 0 -1.13-.17 1.48 1.48 0 0 0 -.57 1 29.76 29.76 0 0 0 -.64 5.73 18.17 18.17 0 0 1 0-4.66 38.17 38.17 0 0 0 -.06-5.45c0-.88 0-2.25-.77-2.84-1.73-1.31-2.26 3.28-2.41 4.17a25.46 25.46 0 0 0 -.3 6.58c-.14-1.75-.27-3.5-.4-5.26a25.68 25.68 0 0 0 -.29-4.37 1.55 1.55 0 0 0 -.79-1.18 1.07 1.07 0 0 0 -1.16.45 2.68 2.68 0 0 0 -.44 1.24c-.26 1.48-.36 3-.47 4.5a30.3 30.3 0 0 0 .33 4.86c-.28-3.27-.69-6.52-.95-9.79a1.83 1.83 0 0 0 -.34-1.11 1.24 1.24 0 0 0 -1.77.16 3.28 3.28 0 0 0 -.66 1.87 47.24 47.24 0 0 0 0 8.41l-.41-4.87c-.05-.67-.08-2-.8-2.3a1.77 1.77 0 0 0 -1.87.75 4.16 4.16 0 0 0 -.45 2.07c-.24 6.13-.41 12.58 2.46 18a8.79 8.79 0 0 0 4.81 4.56c9.06 2.78 11-11.2 10.72-17.12a16.36 16.36 0 0 0 -.33-2.82z" fill="#fff"/><path d="m157.3 231.64a7.94 7.94 0 0 1 -2.38-.39c-2.53-.77-4.16-3-5.09-4.78-3-5.68-2.72-12.64-2.5-18.24a4.46 4.46 0 0 1 .52-2.3 2.21 2.21 0 0 1 2.43-.92 1.21 1.21 0 0 1 .48.38c0-.42.07-.84.13-1.26a3.66 3.66 0 0 1 .77-2.12 1.9 1.9 0 0 1 1.38-.61 1.44 1.44 0 0 1 1.07.45 2.29 2.29 0 0 1 .44 1.38l.09 1c0-.21.06-.41.1-.61a3.27 3.27 0 0 1 .52-1.45 1.53 1.53 0 0 1 1.69-.6 2 2 0 0 1 1.07 1.5 9.5 9.5 0 0 1 .25 2.13c.31-1.78.76-3.37 1.7-3.75a1.29 1.29 0 0 1 1.29.25c.92.69.94 2.13.95 3.08v.11c0 .56 0 1.15.07 1.74s.06 1.08.08 1.63a1.25 1.25 0 0 1 .41-.38 1.46 1.46 0 0 1 1.65.22 4.6 4.6 0 0 1 1.46 2.66 15.93 15.93 0 0 1 .33 2.91c.22 4.93-.95 13.43-5.1 16.64a6.07 6.07 0 0 1 -3.81 1.33zm-7.6-25.83a1.52 1.52 0 0 0 -1.08.61 3.73 3.73 0 0 0 -.38 1.85c-.23 5.77-.49 12.31 2.4 17.77.85 1.6 2.32 3.66 4.54 4.34a5.62 5.62 0 0 0 5.38-.78c3.85-3 4.95-11.32 4.75-15.88a15.55 15.55 0 0 0 -.31-2.72 3.83 3.83 0 0 0 -1.15-2.17.59.59 0 0 0 -.61-.13 1.15 1.15 0 0 0 -.36.71 30.73 30.73 0 0 0 -.62 5.65.46.46 0 0 1 -.44.44.47.47 0 0 1 -.47-.4 17.8 17.8 0 0 1 0-4.78 19.76 19.76 0 0 0 0-3.61c0-.6-.07-1.2-.08-1.78v-.11c0-.77 0-1.94-.59-2.37-.24-.18-.35-.14-.38-.12-.33.13-.81.88-1.25 3.69l-.05.32a25 25 0 0 0 -.32 6.1v.37a.45.45 0 0 1 -.42.49.49.49 0 0 1 -.49-.42v-.37l-.37-4.89c0-.55 0-1.07 0-1.6a11.26 11.26 0 0 0 -.24-2.7c-.12-.5-.28-.78-.49-.85a.65.65 0 0 0 -.65.28 2.38 2.38 0 0 0 -.35 1.05c-.24 1.39-.35 2.85-.45 4.26v.19a9.33 9.33 0 0 0 0 1.18c.12 1.2.24 2.4.35 3.61a.46.46 0 1 1 -.91.08l-.15-1.37c-.09-.72-.18-1.47-.21-2.23 0-.27-.05-.55-.08-.82-.19-1.78-.37-3.57-.52-5.36a1.42 1.42 0 0 0 -.22-.84.52.52 0 0 0 -.39-.15 1 1 0 0 0 -.71.31 3 3 0 0 0 -.54 1.62 48.28 48.28 0 0 0 0 8.33.46.46 0 0 1 -.91.07l-.42-5.07c0-.54-.11-1.54-.52-1.72a.46.46 0 0 0 -.29-.08z" fill="#231f20"/><path d="m161.8 215s-4.18-2.06-6 4.67" fill="#fff"/><path d="m155.79 220.15h-.12a.47.47 0 0 1 -.32-.56c.71-2.6 1.85-4.26 3.39-5a4.08 4.08 0 0 1 3.27 0 .46.46 0 0 1 .2.62.46.46 0 0 1 -.61.2 3.14 3.14 0 0 0 -2.5 0c-1.27.58-2.24 2.05-2.87 4.36a.46.46 0 0 1 -.44.38z" fill="#231f20"/><path d="m200 277.48a.51.51 0 0 1 -.34-.14l-1.76-1.65-2.41-2.26c-7.16-6.77-14.75-13.74-23.21-21.31q-3.37-3.06-6.77-6.05c-2.88-2.55-5.75-5.09-8.64-7.61-2-1.74-3.93-3.46-5.9-5.18l-1.59-1.38q-6.18-5.4-12.4-10.78l-2.33-2c-7.86-6.8-16-13.82-23.76-21-4.21-3.87-8.22-7.71-11.92-11.43a189.31 189.31 0 0 1 -13.29-14.69 121 121 0 0 1 -10.09-14.36 102.92 102.92 0 0 1 -13.15-37.06 149.71 149.71 0 0 1 -1.75-29.32c1.31-30.03 19.85-55.26 47.31-64.36 29.12-9.61 55.46-3.34 78.3 18.64a85.73 85.73 0 0 1 13.33 16.85l.32.5.84-1.27c.92-1.41 1.79-2.74 2.72-4 9.6-13.51 21-23 34.86-29a71.93 71.93 0 0 1 34.82-5.67c18.28 1.5 33.79 8.67 46.11 21.3a69.85 69.85 0 0 1 19.24 39.47c1.34 9.09 1 18.11 0 28.85a113.64 113.64 0 0 1 -5.83 27.43c-4.52 12.9-12.05 25.16-23 37.5-2.93 3.31-6.1 6.66-9.68 10.24-6.93 6.94-14.16 13.46-22.87 21.12l-3.86 3.4-14.78 13-5.1 4.48-5.32 4.68q-10.85 9.54-21.67 19.1l-8.17 7.22c-1.63 1.45-3.21 2.88-4.7 4.25-2.36 2.18-4.7 4.39-7 6.59-1.73 1.63-3.45 3.25-5.18 4.86l-1 .95a.49.49 0 0 1 -.38.09zm-66.32-253.94a80.82 80.82 0 0 0 -25.35 4.31c-27.07 8.92-45.33 33.84-46.64 63.48a147.64 147.64 0 0 0 1.74 29.12 101.94 101.94 0 0 0 13 36.71 122.15 122.15 0 0 0 10 14.25 193.45 193.45 0 0 0 13.24 14.59c3.69 3.7 7.69 7.53 11.88 11.4 7.77 7.15 15.89 14.17 23.74 21l2.33 2q6.23 5.38 12.41 10.77l1.59 1.39c2 1.72 3.94 3.44 5.9 5.18 2.89 2.51 5.77 5.06 8.64 7.61q3.41 3 6.78 6.05c8.46 7.6 16.06 14.53 23.22 21.3l2.41 2.26 1.42 1.33.68-.63c1.74-1.61 3.46-3.23 5.18-4.85 2.34-2.21 4.69-4.42 7.06-6.6 1.48-1.38 3.07-2.82 4.71-4.27l8.17-7.22q10.83-9.57 21.67-19.1l5.32-4.68 5.1-4.48 14.78-13 3.86-3.4c8.7-7.65 15.91-14.16 22.83-21.08 3.56-3.57 6.71-6.9 9.63-10.19 10.87-12.24 18.33-24.4 22.81-37.17a113.11 113.11 0 0 0 5.78-27.18c1-10.67 1.33-19.62 0-28.61a68.85 68.85 0 0 0 -19-38.92c-12.15-12.46-27.45-19.52-45.49-21a70.92 70.92 0 0 0 -34.33 5.6c-13.69 5.92-24.95 15.3-34.44 28.66-.92 1.29-1.79 2.62-2.71 4-.41.63-.82 1.26-1.25 1.9a.5.5 0 0 1 -.42.23.5.5 0 0 1 -.41-.23l-.16-.23-.6-.92a84.8 84.8 0 0 0 -13.17-16.66c-15.68-15.13-33.08-22.72-51.91-22.72z" fill="#231f20"/><path d="m200 260c-7.71 0-14-5.86-14-13.06s6.28-13.07 14-13.07 14 5.86 14 13.07-6.29 13.06-14 13.06zm0-25.13c-7.16 0-13 5.41-13 12.07s5.84 12.06 13 12.06 13-5.41 13-12.06-5.84-12.07-13-12.07z" fill="#d1d3d4"/></svg>