<svg width="129" height="146" viewBox="0 0 129 146" fill="none" xmlns="http://www.w3.org/2000/svg">
<path d="M98.5431 16.2534V5.27708C98.5431 2.39228 96.1064 0 93.1681 0C90.2298 0 87.7931 2.39228 87.7931 5.27708V15.8312H41.21V5.27708C41.21 2.39228 38.7733 0 35.835 0C32.8966 0 30.46 2.39228 30.46 5.27708V16.2534C11.11 18.0124 1.72165 29.3406 0.288316 46.1569C0.144983 48.1974 1.86498 49.886 3.87165 49.886H125.131C127.21 49.886 128.93 48.127 128.715 46.1569C127.281 29.3406 117.893 18.0124 98.5431 16.2534Z" fill="#190EEA"/>
<path opacity="0.4" d="M121.833 60.4408C125.775 60.4408 129 63.6072 129 67.477V110.819C129 131.928 118.25 146 93.1667 146H35.8333C10.75 146 0 131.928 0 110.819V67.477C0 63.6072 3.225 60.4408 7.16667 60.4408H121.833Z" fill="#190EEE"/>
<path d="M39.4167 96.7458C37.5533 96.7458 35.69 95.9718 34.3283 94.7053C33.0383 93.3685 32.25 91.5391 32.25 89.7097C32.25 87.8803 33.0383 86.0509 34.3283 84.7141C36.335 82.744 39.4883 82.1107 42.14 83.2365C43.0717 83.5883 43.86 84.0808 44.505 84.7141C45.795 86.0509 46.5833 87.8803 46.5833 89.7097C46.5833 91.5391 45.795 93.3685 44.505 94.7053C43.1433 95.9718 41.28 96.7458 39.4167 96.7458Z" fill="#190EEA"/>
<path d="M64.5 96.7458C62.6367 96.7458 60.7733 95.9718 59.4117 94.7053C58.1217 93.3685 57.3333 91.5391 57.3333 89.7097C57.3333 87.8803 58.1217 86.0509 59.4117 84.7141C60.0567 84.0808 60.845 83.5883 61.7767 83.2365C64.4283 82.1107 67.5817 82.744 69.5883 84.7141C70.8783 86.0509 71.6667 87.8803 71.6667 89.7097C71.6667 91.5391 70.8783 93.3685 69.5883 94.7053C69.23 94.9868 68.8717 95.2682 68.5133 95.5497C68.0833 95.8311 67.6533 96.0422 67.2233 96.1829C66.7933 96.394 66.3633 96.5347 65.9333 96.6051C65.4317 96.6755 65.0017 96.7458 64.5 96.7458Z" fill="#190EEA"/>
<path d="M89.5833 96.7465C87.72 96.7465 85.8567 95.9725 84.495 94.706C83.205 93.3692 82.4167 91.5398 82.4167 89.7104C82.4167 87.881 83.205 86.0516 84.495 84.7148C85.2117 84.0815 85.9283 83.589 86.86 83.2372C88.15 82.6743 89.5833 82.5336 91.0167 82.815C91.4467 82.8854 91.8767 83.0261 92.3067 83.2372C92.7367 83.3779 93.1667 83.589 93.5967 83.8704C93.955 84.1519 94.3133 84.4333 94.6717 84.7148C95.9617 86.0516 96.75 87.881 96.75 89.7104C96.75 91.5398 95.9617 93.3692 94.6717 94.706C94.3133 94.9875 93.955 95.2689 93.5967 95.5504C93.1667 95.8318 92.7367 96.0429 92.3067 96.1836C91.8767 96.3947 91.4467 96.5354 91.0167 96.6058C90.515 96.6762 90.0133 96.7465 89.5833 96.7465Z" fill="#190EEA"/>
<path d="M39.4167 121.373C38.485 121.373 37.5533 121.162 36.6933 120.81C35.7617 120.458 35.045 119.966 34.3283 119.332C33.0383 117.996 32.25 116.166 32.25 114.337C32.25 112.507 33.0383 110.678 34.3283 109.341C35.045 108.708 35.7617 108.215 36.6933 107.864C37.9833 107.301 39.4167 107.16 40.85 107.441C41.28 107.512 41.71 107.653 42.14 107.864C42.57 108.004 43 108.215 43.43 108.497L44.505 109.341C45.795 110.678 46.5833 112.507 46.5833 114.337C46.5833 116.166 45.795 117.996 44.505 119.332C44.1467 119.614 43.7883 119.966 43.43 120.177C43 120.458 42.57 120.669 42.14 120.81C41.71 121.021 41.28 121.162 40.85 121.232C40.3483 121.303 39.9183 121.373 39.4167 121.373Z" fill="#190EEA"/>
<path d="M64.5 121.372C62.6367 121.372 60.7733 120.598 59.4117 119.332C58.1217 117.995 57.3333 116.165 57.3333 114.336C57.3333 112.507 58.1217 110.678 59.4117 109.341C62.0633 106.738 66.9367 106.738 69.5883 109.341C70.8783 110.678 71.6667 112.507 71.6667 114.336C71.6667 116.165 70.8783 117.995 69.5883 119.332C68.2267 120.598 66.3633 121.372 64.5 121.372Z" fill="#190EEA"/>
<path d="M89.5833 121.372C87.72 121.372 85.8567 120.598 84.495 119.332C83.205 117.995 82.4167 116.165 82.4167 114.336C82.4167 112.507 83.205 110.678 84.495 109.341C87.1467 106.738 92.02 106.738 94.6717 109.341C95.9617 110.678 96.75 112.507 96.75 114.336C96.75 116.165 95.9617 117.995 94.6717 119.332C93.31 120.598 91.4467 121.372 89.5833 121.372Z" fill="#190EEA"/>
</svg>
